# xmcd
# 
# Track frame offsets:
#     150
#     15177
#     42515
#     66080
#     80272
#     103657
#     119985
#     141927
#     164525
#     184277
#     203390
#     217477
#     248862
#     281780
# 
# Disc length: 4124
# 
# Revision: 4
# Processed by: cddbd v1.5.2PL0 Copyright (c) Steve Scherf et al.
# Submitted via: BonkEnc v1.0.6
# 
DISCID=d7101a0e
DTITLE=Axel Zwingenberger - Boogie Back to New York City
DYEAR=1995
DGENRE=Jazz
TTITLE0=The Fives
TTITLE1=Thundertrain
TTITLE2=Groovy Gotham
TTITLE3=Boogie in the Weeds
TTITLE4=Long Lost Love
TTITLE5=Madhattan Boogie
TTITLE6=Snowflake Dance
TTITLE7=Steel Dragon
TTITLE8=St. Louis Boogie Blues
TTITLE9=Cow Cow Blues
TTITLE10=Five Spot Stomp
TTITLE11=Boogie Woogie Stomp
TTITLE12=Low Lights
TTITLE13=Swanee River Boogie
EXTD=
EXTT0=
EXTT1=
EXTT2=
EXTT3=
EXTT4=
EXTT5=
EXTT6=
EXTT7=
EXTT8=
EXTT9=
EXTT10=
EXTT11=
EXTT12=
EXTT13=
PLAYORDER=
